<svg width="12" height="12" viewBox="0 0 12 12" fill="none" xmlns="http://www.w3.org/2000/svg">
<path fill-rule="evenodd" clip-rule="evenodd" d="M6.0001 1.80156C3.6805 1.80156 1.8001 3.68197 1.8001 6.00156C1.8001 8.32116 3.6805 10.2016 6.0001 10.2016C8.31969 10.2016 10.2001 8.32116 10.2001 6.00156C10.2001 3.68197 8.31969 1.80156 6.0001 1.80156ZM0.600098 6.00156C0.600098 3.01922 3.01776 0.601562 6.0001 0.601562C8.98244 0.601562 11.4001 3.01922 11.4001 6.00156C11.4001 8.9839 8.98244 11.4016 6.0001 11.4016C3.01776 11.4016 0.600098 8.9839 0.600098 6.00156Z" fill="#3C64E6"/>
<path fill-rule="evenodd" clip-rule="evenodd" d="M4.97554 3.17574C5.20986 2.94142 5.58975 2.94142 5.82407 3.17574L7.7998 5.15147C8.26843 5.6201 8.26843 6.3799 7.7998 6.84853L5.82407 8.82426C5.58975 9.05858 5.20986 9.05858 4.97554 8.82426C4.74123 8.58995 4.74123 8.21005 4.97554 7.97574L6.95128 6L4.97554 4.02426C4.74123 3.78995 4.74123 3.41005 4.97554 3.17574Z" fill="#3C64E6"/>
</svg>
