<svg width="17" height="16" viewBox="0 0 17 16" fill="none" xmlns="http://www.w3.org/2000/svg">
<path fill-rule="evenodd" clip-rule="evenodd" d="M8.5 0.199219C8.83137 0.199219 9.1 0.467848 9.1 0.799219L9.1 9.75069L10.8757 7.97496C11.1101 7.74064 11.4899 7.74064 11.7243 7.97496C11.9586 8.20927 11.9586 8.58917 11.7243 8.82348L9.48995 11.0578C8.94322 11.6045 8.05679 11.6045 7.51005 11.0578L5.27574 8.82348C5.04142 8.58917 5.04142 8.20927 5.27574 7.97496C5.51005 7.74064 5.88995 7.74064 6.12426 7.97496L7.9 9.75069L7.9 0.799219C7.9 0.467848 8.16863 0.199219 8.5 0.199219ZM3.7 4.59922C3.14772 4.59922 2.7 5.04693 2.7 5.59922V12.7992C2.7 13.3515 3.14772 13.7992 3.7 13.7992H13.3C13.8523 13.7992 14.3 13.3515 14.3 12.7992V5.59922C14.3 5.04693 13.8523 4.59922 13.3 4.59922H11.7C11.3686 4.59922 11.1 4.33059 11.1 3.99922C11.1 3.66785 11.3686 3.39922 11.7 3.39922H13.3C14.515 3.39922 15.5 4.38419 15.5 5.59922V12.7992C15.5 14.0142 14.515 14.9992 13.3 14.9992H3.7C2.48497 14.9992 1.5 14.0142 1.5 12.7992V5.59922C1.5 4.38419 2.48497 3.39922 3.7 3.39922H5.3C5.63137 3.39922 5.9 3.66785 5.9 3.99922C5.9 4.33059 5.63137 4.59922 5.3 4.59922H3.7Z" fill="white"/>
</svg>
